<svg version="1.1" id="Layer_1" xmlns="http://www.w3.org/2000/svg" xmlns:xlink="http://www.w3.org/1999/xlink" x="0px" y="0px"
	 width="100%" viewBox="0 0 500 500" enable-background="new 0 0 500 500" xml:space="preserve">
<path fill="#DEFF36" opacity="1.000000" stroke="none" 
	d="
M224.000000,1.000000 
	C241.687561,1.000000 259.375122,1.000000 277.759155,1.335753 
	C322.004395,6.673721 361.822205,21.593410 397.144592,47.585552 
	C453.294403,88.903694 487.155182,144.047836 498.147339,213.042007 
	C499.100952,219.027573 500.049255,225.013977 501.000000,231.000000 
	C501.000000,243.687561 501.000000,256.375122 500.660431,269.757599 
	C499.943451,273.420593 499.553925,276.387207 499.190399,279.356995 
	C491.083405,345.591400 461.683258,400.856110 410.094269,442.726807 
	C342.346649,497.712097 264.564575,515.098755 181.056702,489.617889 
	C81.296135,459.177856 22.484791,389.848480 3.781178,286.967865 
	C2.756164,281.329712 1.922653,275.656769 1.000000,270.000000 
	C1.000000,257.645782 1.000000,245.291550 1.316407,232.205750 
	C2.885253,222.085876 3.635228,212.598068 5.471435,203.325378 
	C17.664001,141.753876 48.575542,91.554703 97.886940,52.753757 
	C128.215485,28.889574 162.487640,13.384065 200.182739,5.391695 
	C208.077316,3.717834 216.058640,2.453207 224.000000,1.000000 
M278.431427,296.025391 
	C242.678543,296.025391 206.925659,296.025391 170.377197,296.025391 
	C171.240402,297.921631 171.705399,299.271851 172.422867,300.471008 
	C189.037949,328.240967 205.711044,355.976379 222.264587,383.782928 
	C223.719406,386.226715 225.317841,387.075653 228.151443,387.067108 
	C262.283295,386.964600 296.415588,387.000702 330.547760,387.000641 
	C331.638306,387.000641 332.728851,387.000641 334.562683,387.000641 
	C333.185883,384.656952 332.241669,382.978088 331.231171,381.340118 
	C314.761871,354.644562 298.268005,327.964081 281.849487,301.237335 
	C280.883301,299.664520 280.509552,297.727753 280.814850,295.996216 
	C314.780487,295.997711 348.746155,295.971222 382.711609,296.053467 
	C385.447784,296.060089 387.131195,295.417542 388.669373,292.909668 
	C405.935852,264.757568 423.357666,236.700745 440.714752,208.604141 
	C441.358521,207.562012 441.768341,206.375381 442.484283,204.830917 
	C440.045868,204.830917 438.224640,204.830917 436.403412,204.830917 
	C403.774384,204.830856 371.143921,204.978592 338.517822,204.670563 
	C333.652069,204.624634 331.383820,206.134293 329.049988,210.180161 
	C314.547821,235.320465 299.704254,260.263611 285.035553,285.308228 
	C282.990021,288.800659 281.283142,292.491455 278.431427,296.025391 
M180.564835,114.999207 
	C177.217743,114.999207 173.870651,114.999207 169.924042,114.999207 
	C187.631317,144.479233 204.773453,173.076096 222.051834,201.590393 
	C222.807053,202.836716 224.808624,204.055893 226.234329,204.061340 
	C261.804993,204.197327 297.376282,204.168091 333.563507,204.168091 
	C332.625458,202.397369 332.011932,201.094711 331.273743,199.867004 
	C315.197021,173.129974 299.023071,146.450668 283.115784,119.613274 
	C280.939148,115.941040 278.579620,114.873756 274.458221,114.898376 
	C243.488678,115.083435 212.517532,114.999207 180.564835,114.999207 
M75.064346,269.554047 
	C70.027641,277.683472 64.990936,285.812897 60.038624,293.806091 
	C70.783424,311.092743 81.266495,327.958313 91.867691,345.013916 
	C118.211105,328.662537 144.115021,312.583923 170.103271,296.452972 
	C151.574844,266.611298 133.103973,236.862289 114.325462,206.617828 
	C101.249924,227.607193 88.368507,248.284927 75.064346,269.554047 
z"/>

<path fill="#010100" opacity="1.000000" stroke="none" 
	d="
M279.860107,295.960327 
	C280.509552,297.727753 280.883301,299.664520 281.849487,301.237335 
	C298.268005,327.964081 314.761871,354.644562 331.231171,381.340118 
	C332.241669,382.978088 333.185883,384.656952 334.562683,387.000641 
	C332.728851,387.000641 331.638306,387.000641 330.547760,387.000641 
	C296.415588,387.000702 262.283295,386.964600 228.151443,387.067108 
	C225.317841,387.075653 223.719406,386.226715 222.264587,383.782928 
	C205.711044,355.976379 189.037949,328.240967 172.422867,300.471008 
	C171.705399,299.271851 171.240402,297.921631 170.377197,296.025391 
	C206.925659,296.025391 242.678543,296.025391 279.033386,296.019775 
	C279.635376,296.014130 279.860107,295.960327 279.860107,295.960327 
z"/>
<path fill="#000100" opacity="1.000000" stroke="none" 
	d="
M280.337463,295.978271 
	C279.860107,295.960327 279.635376,296.014130 279.527435,296.052277 
	C281.283142,292.491455 282.990021,288.800659 285.035553,285.308228 
	C299.704254,260.263611 314.547821,235.320465 329.049988,210.180161 
	C331.383820,206.134293 333.652069,204.624634 338.517822,204.670563 
	C371.143921,204.978592 403.774384,204.830856 436.403412,204.830917 
	C438.224640,204.830917 440.045868,204.830917 442.484283,204.830917 
	C441.768341,206.375381 441.358521,207.562012 440.714752,208.604141 
	C423.357666,236.700745 405.935852,264.757568 388.669373,292.909668 
	C387.131195,295.417542 385.447784,296.060089 382.711609,296.053467 
	C348.746155,295.971222 314.780487,295.997711 280.337463,295.978271 
z"/>
<path fill="#010100" opacity="1.000000" stroke="none" 
	d="
M181.055847,114.999207 
	C212.517532,114.999207 243.488678,115.083435 274.458221,114.898376 
	C278.579620,114.873756 280.939148,115.941040 283.115784,119.613274 
	C299.023071,146.450668 315.197021,173.129974 331.273743,199.867004 
	C332.011932,201.094711 332.625458,202.397369 333.563507,204.168091 
	C297.376282,204.168091 261.804993,204.197327 226.234329,204.061340 
	C224.808624,204.055893 222.807053,202.836716 222.051834,201.590393 
	C204.773453,173.076096 187.631317,144.479233 169.924042,114.999207 
	C173.870651,114.999207 177.217743,114.999207 181.055847,114.999207 
z"/>
<path fill="#010100" opacity="1.000000" stroke="none" 
	d="
M75.275711,269.258362 
	C88.368507,248.284927 101.249924,227.607193 114.325462,206.617828 
	C133.103973,236.862289 151.574844,266.611298 170.103271,296.452972 
	C144.115021,312.583923 118.211105,328.662537 91.867691,345.013916 
	C81.266495,327.958313 70.783424,311.092743 60.038624,293.806091 
	C64.990936,285.812897 70.027641,277.683472 75.275711,269.258362 
z"/>
</svg>